inDegrees=yes
name=IK-live
DataType=double
version=3
OpenSimVersion=4.1
endheader
time	pelvis_tilt	pelvis_list	pelvis_rotation	pelvis_tx	pelvis_ty	pelvis_tz	hip_flexion_r	hip_adduction_r	hip_rotation_r	knee_angle_r	ankle_angle_r	subtalar_angle_r	mtp_angle_r	hip_flexion_l	hip_adduction_l	hip_rotation_l	knee_angle_l	ankle_angle_l	subtalar_angle_l	mtp_angle_l	lumbar_extension	lumbar_bending	lumbar_rotation	neck_flex	neck_latbend	neck_rot	arm_flex_r	arm_add_r	arm_rot_r	elbow_flex_r	pro_sup_r	wrist_flex_r	wrist_dev_r	arm_flex_l	arm_add_l	arm_rot_l	elbow_flex_l	pro_sup_l	wrist_flex_l	wrist_dev_l
21.7987758	-8.672365801087416	15.22207916260172	-260.7591335267313	0.2341366603171506	0.04326292228651554	-1.326684523481465	-22.57117169827992	-1.591976316804377	-3.241458145969817	5.899560354604904	2.451982624139334	1.987972377786656	0	-24.74788768789517	-3.395140484746916	-11.58000132048591	9.793848132074926	-0.4439473045988533	4.250290820099795	0	-21.37711699760957	1.659277491615732	3.206407148933037	0	0	0	21.78893027601342	-15.09840238249994	14.97580673983714	56.81757079982564	43.34691940307177	0	4.956966990270269	25.36166987285037	-14.01315583540264	19.1463307451673	56.80226524071288	44.01206991904226	0	4.956966990270269
21.9656918	4.731625761204405	27.29998296603761	-256.6454838582993	0.2341366603171506	0.04326292228651554	-1.326684523481465	-22.57117169827992	-1.591976316804377	-3.241458145969817	5.899560354604904	2.451982624139334	1.987972377786656	0	-24.74788768789517	-3.395140484746916	-11.58000132048591	9.793848132074926	-0.4439473045988533	4.250290820099795	0	-21.37711699760957	1.659277491615732	3.206407148933037	0	0	0	21.87309456371811	-15.09814765052106	14.92666338568043	56.89571086226689	43.3606636045895	0	4.957559126543211	25.4406508773734	-14.01571056267425	19.08300630946011	56.88047421458244	44.0202818536344	0	4.957559126543211
22.1325653	9.830412213679699	28.25292303257874	-263.2317125385435	0.2341366603171506	0.04326292228651554	-1.326684523481465	-22.57117169827992	-1.591976316804377	-3.241458145969817	5.899560354604904	2.451982624139334	1.987972377786656	0	-24.74788768789517	-3.395140484746916	-11.58000132048591	9.793848132074926	-0.4439473045988533	4.250290820099795	0	-21.37711699760957	1.659277491615732	3.206407148933037	0	0	0	21.9571350674317	-15.09789357796145	14.87768525324241	56.97349923551511	43.37429344684934	0	4.958143115011932	25.51951890059798	-14.01825867574986	19.01989977789652	56.95833114759226	44.02842551015945	0	4.958143115011932
22.2994788	17.82710025661178	29.91083203143336	-263.2115936084876	0.2341366603171506	0.04326292228651554	-1.326684523481465	-22.57117169827992	-1.591976316804377	-3.241458145969817	5.899560354604904	2.451982624139334	1.987972377786656	0	-24.74788768789517	-3.395140484746916	-11.58000132048591	9.793848132074926	-0.4439473045988533	4.250290820099795	0	-21.37711699760957	1.659277491615732	3.206407148933037	0	0	0	22.04105205228823	-15.0976401631141	14.82887174758838	57.05093771261047	43.38780988350895	0	4.958719067790618	25.59827417128663	-14.02080019175798	18.95701031471122	57.03583783512787	44.03650145676814	0	4.958719067790618
22.463876	21.05041040584867	35.14367594954869	-264.445251829882	0.2341366603171506	0.04326292228651554	-1.326684523481465	-22.57117169827992	-1.591976316804377	-3.241458145969817	5.899560354604904	2.451982624139334	1.987972377786656	0	-24.74788768789517	-3.395140484746916	-11.58000132048591	9.793848132074926	-0.4439473045988533	4.250290820099795	0	-21.37711699760957	1.659277491615732	3.206407148933037	0	0	0	22.12484578249896	-15.0973874042764	14.78022227632027	57.12802807465666	43.40121386022069	0	4.959287095450749	25.67691691745907	-14.02333512778268	18.89433708822067	57.11299606061558	44.04451025687232	0	4.959287095450749
22.615795	30.57147022197307	38.03787147579502	-262.0508906786798	0.2341366603171506	0.04326292228651554	-1.326684523481465	-22.57117169827992	-1.591976316804377	-3.241458145969817	5.899560354604904	2.451982624139334	1.987972377786656	0	-24.74788768789517	-3.395140484746916	-11.58000132048591	9.793848132074926	-0.4439473045988533	4.250290820099795	0	-21.37711699760957	1.659277491615732	3.206407148933037	0	0	0	22.20851652135709	-15.09713529975013	14.73173624956195	57.2047720909362	43.41450631470009	0	4.959847307042323	25.75544736639572	-14.02586350086379	18.83187927079443	57.18980759563812	44.05245246918479	0	4.959847307042323
22.7827062	47.52081996687531	46.16941269515235	-271.0497300365784	0.2341366603171506	0.04326292228651554	-1.326684523481465	-22.57117169827992	-1.591976316804377	-3.241458145969817	5.899560354604904	2.451982624139334	1.987972377786656	0	-24.74788768789517	-3.395140484746916	-11.58000132048591	9.793848132074926	-0.4439473045988533	4.250290820099795	0	-21.37711699760957	1.659277491615732	3.206407148933037	0	0	0	22.45456106736657	-15.09631316991003	14.56419883998927	57.49086726664397	43.47427896719206	0	4.962881950079503	25.98548636376069	-14.03410890738524	18.61477848950483	57.4761652884476	44.08815358096962	0	4.962881950079503
22.9486103	59.04642245465841	39.05613711260402	-270.486024304784	0.2341366603171506	0.04326292228651554	-1.326684523481465	-22.57117169827992	-1.591976316804377	-3.241458145969817	5.899560354604904	2.451982624139334	1.987972377786656	0	-24.74788768789517	-3.395140484746916	-11.58000132048591	9.793848132074926	-0.4439473045988533	4.250290820099795	0	-21.37711699760957	1.659277491615732	3.206407148933037	0	0	0	22.63144151581973	-15.09572050682588	14.44339083949933	57.69698157042084	43.51701233208956	0	4.965000472631914	26.15084754672889	-14.04005291696372	18.45825020420216	57.68246838026034	44.11367857461222	0	4.965000472631914
23.1137924	80.80105825749217	33.88513793206914	-288.8653845529395	0.2341366603171506	0.04326292228651554	-1.326684523481465	-22.57117169827992	-1.591976316804377	-3.241458145969817	5.899560354604904	2.451982624139334	1.987972377786656	0	-24.74788768789517	-3.395140484746916	-11.58000132048591	9.793848132074926	-0.4439473045988533	4.250290820099795	0	-21.37711699760957	1.659277491615732	3.206407148933037	0	0	0	23.03527198251827	-15.09439802952929	14.17746401011904	58.14221576279994	43.60432821049979	0	4.968999008979081	26.52870676949016	-14.05331638907278	18.11419139871133	58.12810608220127	44.16583895539647	0	4.968999008979081
23.2647215	35.82556846405377	33.54571154897312	-261.8601185353489	0.2341366603171506	0.04326292228651554	-1.326684523481465	-22.57117169827992	-1.591976316804377	-3.241458145969817	5.899560354604904	2.451982624139334	1.987972377786656	0	-24.74788768789517	-3.395140484746916	-11.58000132048591	9.793848132074926	-0.4439473045988533	4.250290820099795	0	-21.37711699760957	1.659277491615732	3.206407148933037	0	0	0	23.56446119130971	-15.09259677527292	13.80941814254598	58.76828805905198	43.7293934931842	0	4.974530134900392	27.02317663479952	-14.07138175609888	17.63751037757105	58.75474787323285	44.24055410706907	0	4.974530134900392
23.4306147	20.01369400680055	20.06322653092588	-265.3968650837479	0.2341366603171506	0.04326292228651554	-1.326684523481465	-22.57117169827992	-1.591976316804377	-3.241458145969817	5.899560354604904	2.451982624139334	1.987972377786656	0	-24.74788768789517	-3.395140484746916	-11.58000132048591	9.793848132074926	-0.4439473045988533	4.250290820099795	0	-21.37711699760957	1.659277491615732	3.206407148933037	0	0	0	23.75036894513829	-15.09198344968248	13.6862183415302	58.97325214008811	43.7679073319587	0	4.976104764884023	27.19709439639958	-14.07753295283515	17.47821167391961	58.95989629683976	44.26356479042979	0	4.976104764884023
23.5985363	20.00767724196723	-4.646998849368689	-263.1399459647265	0.2341366603171506	0.04326292228651554	-1.326684523481465	-22.57117169827992	-1.591976316804377	-3.241458145969817	5.899560354604904	2.451982624139334	1.987972377786656	0	-24.74788768789517	-3.395140484746916	-11.58000132048591	9.793848132074926	-0.4439473045988533	4.250290820099795	0	-21.37711699760957	1.659277491615732	3.206407148933037	0	0	0	23.83166979554729	-15.09174533425785	13.64139787344504	59.04176434781511	43.77814958280716	0	4.976433565207054	27.27346700426637	-14.07992100886441	17.42059940035857	59.02846770173309	44.26968586438775	0	4.976433565207054
23.7654279	13.47336587276943	-15.66929506374546	-255.9312890221126	0.2341366603171506	0.04326292228651554	-1.326684523481465	-22.57117169827992	-1.591976316804377	-3.241458145969817	5.899560354604904	2.451982624139334	1.987972377786656	0	-24.74788768789517	-3.395140484746916	-11.58000132048591	9.793848132074926	-0.4439473045988533	4.250290820099795	0	-21.37711699760957	1.659277491615732	3.206407148933037	0	0	0	23.91285290487913	-15.09150783523749	13.59672718818336	59.10997297304765	43.78830665541359	0	4.976757841236533	27.3497318413922	-14.08230288230861	17.3631834055283	59.09673523431509	44.27575605386615	0	4.976757841236533
23.9298033	15.6548160206571	-36.17941597790072	-253.5846052458797	0.2341366603171506	0.04326292228651554	-1.326684523481465	-22.57117169827992	-1.591976316804377	-3.241458145969817	5.899560354604904	2.451982624139334	1.987972377786656	0	-24.74788768789517	-3.395140484746916	-11.58000132048591	9.793848132074926	-0.4439473045988533	4.250290820099795	0	-21.37711699760957	1.659277491615732	3.206407148933037	0	0	0	23.99391851761101	-15.09127095102571	13.55220575540283	59.17787950095273	43.79837925903045	0	4.977077655226812	27.42588911990475	-14.08467858917775	17.3059629565075	59.16470038153177	44.2817757820553	0	4.977077655226812
24.0807916	15.35142582296591	-53.57526787287188	-246.981500730646	0.2341366603171506	0.04326292228651554	-1.326684523481465	-22.57117169827992	-1.591976316804377	-3.241458145969817	5.899560354604904	2.451982624139334	1.987972377786656	0	-24.74788768789517	-3.395140484746916	-11.58000132048591	9.793848132074926	-0.4439473045988533	4.250290820099795	0	-21.37711699760957	1.659277491615732	3.206407148933037	0	0	0	24.07486687740096	-15.09103468003098	13.5078330469352	59.24548540759478	43.80836809698276	0	4.977393068575601	27.50193905126709	-14.08704814544034	17.24893732376085	59.2323646212111	44.2877454686213	0	4.977393068575601
24.2486438	17.87343508817328	-60.47375348499166	-238.6011670022444	0.2341366603171506	0.04326292228651554	-1.326684523481465	-22.57117169827992	-1.591976316804377	-3.241458145969817	5.899560354604904	2.451982624139334	1.987972377786656	0	-24.74788768789517	-3.395140484746916	-11.58000132048591	9.793848132074926	-0.4439473045988533	4.250290820099795	0	-21.37711699760957	1.659277491615732	3.206407148933037	0	0	0	24.26596129378319	-15.0904128643504	13.38405697208948	59.44874796229237	43.84502860485982	0	4.978801809715041	27.68080942064018	-14.09328446523206	17.08905706849682	59.43580859608546	44.30965045502687	0	4.978801809715041
24.4154989	15.17110651163944	-68.66557755060937	-225.6400693750081	0.2341366603171506	0.04326292228651554	-1.326684523481465	-22.57117169827992	-1.591976316804377	-3.241458145969817	5.899560354604904	2.451982624139334	1.987972377786656	0	-24.74788768789517	-3.395140484746916	-11.58000132048591	9.793848132074926	-0.4439473045988533	4.250290820099795	0	-21.37711699760957	1.659277491615732	3.206407148933037	0	0	0	24.40340710019057	-15.08996416096989	13.29467636943776	59.5955237115038	43.87136690390959	0	4.979795343793226	27.80945080951544	-14.09778460605461	16.97360990497485	59.58271523260974	44.32538814064791	0	4.979795343793226
